<svg width="100" height="130" viewBox="0 0 149 185" fill="none" xmlns="http://www.w3.org/2000/svg">
  <defs>
    <mask id="cutHandle">
      <rect width="100%" height="100%" fill="white"/>
      <!-- Recorte para la oreja (agujero) -->
      <ellipse cx="120" cy="104" rx="20" ry="30" fill="black"/>
    </mask>
  </defs>

  <!-- Taza con máscara aplicada para simular el hueco de la oreja -->
  <path id="taza" mask="url(#cutHandle)" d="M0.998246 44.8633C0.82485 40.2164 3.20093 35.9451 7.60672 34.7395C15.2719 32.6418 30.0446 30 55.8316 30C78.5803 30 93.9339 31.7133 103.323 33.3171C109.921 34.4443 113.142 41.2871 111.336 47.854C109.925 52.987 109.105 57.8516 111.07 57.8516C113.594 57.8516 118.528 57.4051 122.014 57.0543C124.552 56.7989 127.108 57.3481 129.311 58.6583L137.116 63.2996C139.111 64.4856 140.723 66.2384 141.756 68.3437L145.948 76.8901C146.451 77.9165 146.809 79.0106 147.01 80.1396L148.808 90.2206C148.99 91.2412 149.043 92.2814 148.965 93.3156L147.993 106.199C147.928 107.064 147.771 107.919 147.527 108.75L144.897 117.685C144.522 118.959 143.944 120.162 143.186 121.244L133.996 134.359C132.979 135.81 131.66 137.014 130.134 137.886L108.04 150.498C104.72 152.394 102.491 155.796 102.046 159.649L100.815 170.318C100.531 172.781 99.4841 175.088 97.4032 176.372C92.2273 179.566 79.3541 185 51.6743 185C19.9541 185 12.3454 178.657 10.5965 176.236C10.1855 175.667 10.0735 174.948 10.0208 174.244C9.16616 162.803 7.45416 154.461 5.67566 145.794C3.70485 136.19 1.65237 126.189 0.594306 111.133C-0.430416 96.5512 0.0760967 85.3129 0.582908 74.068C0.994507 64.9356 1.4063 55.7989 0.998246 44.8633Z" fill="#1450A3"/>
  <ellipse cx="57.5" cy="43" rx="50.5" ry="11" fill="#fff"/>
  <ellipse cx="57.5" cy="47" rx="40" ry="11" fill="#669967" class="te"/>

  <!-- Humo -->
  <path class="humo" d="M82.9795 36.7111C82.5238 39.1067 78.9983 38.783 78.9864 36.3446C78.9832 35.6938 78.6658 35.0846 78.1342 34.7091L71.7533 30.2023C67.7793 27.3955 69.7482 21.1421 74.6134 21.1183L84.2795 21.0711C88.0621 21.0526 89.3507 26.1065 86.021 27.9014L85.6209 28.1171C84.9112 28.4997 84.4116 29.1817 84.261 29.9738L82.9795 36.7111Z" fill="#aaaaaa"/>
  <path class="humo" d="M62.9795 15.7111C62.5238 18.1067 58.9983 17.783 58.9864 15.3446C58.9832 14.6938 58.6658 14.0846 58.1342 13.7091L51.7533 9.20229C47.7793 6.39546 49.7482 0.142093 54.6134 0.118318L64.2795 0.0710818C68.0621 0.0525972 69.3507 5.10654 66.021 6.90141L65.6209 7.11709C64.9112 7.49967 64.4116 8.18169 64.261 8.97376L62.9795 15.7111Z" fill="#aaaaaa"/>
  <path class="humo" d="M40.9795 29.7111C40.5238 32.1067 36.9983 31.783 36.9864 29.3446C36.9832 28.6938 36.6658 28.0846 36.1342 27.7091L29.7533 23.2023C25.7793 20.3955 27.7482 14.1421 32.6134 14.1183L42.2795 14.0711C46.0621 14.0526 47.3507 19.1065 44.021 20.9014L43.6209 21.1171C42.9112 21.4997 42.4116 22.1817 42.261 22.9738L40.9795 29.7111Z" fill="#aaaaaa"/>

  <style>
    #taza {
      z-index: 1;
    }
    .te {
      z-index: 9;
    }
    .humo {
      animation: subir 3s infinite ease-in;
      transform-box: fill-box;
      transform-origin: center;
    }
    .humo:nth-of-type(2) {
      animation-delay: 0.5s;
    }
    .humo:nth-of-type(3) {
      animation-delay: 1s;
    }

    @keyframes subir {
      0% {
        transform: translateY(0px) scale(1);
        opacity: 1;
      }
      50% {
        transform: translateY(-10px) scale(1.05);
        opacity: 0.6;
      }
      100% {
        transform: translateY(-20px) scale(1.1);
        opacity: 0;
      }
    }
  </style>
</svg>
