<svg width="297" height="197" viewBox="0 0 297 197" fill="none" xmlns="http://www.w3.org/2000/svg">
   <path fill-rule="evenodd" clip-rule="evenodd" d="M1.26623 18.8908C1.04629 12.9848 4.06024 7.55607 9.64879 6.0237C19.3718 3.35769 38.1102 0 70.8199 0C99.6757 0 119.151 2.17757 131.06 4.21598C139.43 5.64853 143.515 14.3456 141.225 22.6919C139.435 29.2157 138.395 35.3984 140.887 35.3984C144.089 35.3984 150.347 34.831 154.769 34.3852C157.989 34.0606 161.231 34.7585 164.026 36.4238L173.926 42.3227C176.456 43.83 178.501 46.0578 179.811 48.7336L185.128 59.5958C185.767 60.9003 186.221 62.2909 186.476 63.7259L188.757 76.5385C188.988 77.8356 189.055 79.1576 188.956 80.4721L187.722 96.8464C187.64 97.9456 187.441 99.0325 187.131 100.088L183.796 111.445C183.32 113.064 182.587 114.593 181.625 115.968L169.968 132.637C168.678 134.481 167.005 136.012 165.069 137.119L137.044 153.149C132.832 155.558 130.005 159.883 129.441 164.78L127.879 178.34C127.519 181.47 126.191 184.402 123.552 186.034C116.986 190.094 100.657 197 65.5465 197C25.311 197 15.6595 188.938 13.4412 185.862C12.9199 185.138 12.7777 184.224 12.711 183.329C11.6269 168.789 9.45528 158.186 7.19933 147.171C4.69944 134.965 2.09595 122.253 0.753851 103.117C-0.545963 84.5844 0.0965253 70.3009 0.739393 56.009C1.26149 44.4021 1.78383 32.7895 1.26623 18.8908ZM135.613 15.3906C135.613 22.1906 107.953 27.7031 73.8335 27.7031C39.7139 27.7031 12.0545 22.1906 12.0545 15.3906C12.0545 8.59062 39.7139 3.07812 73.8335 3.07812C107.953 3.07812 135.613 8.59062 135.613 15.3906ZM165.807 118.74C173.049 110.207 177.803 104.606 177.803 87.7266C177.803 66.4765 171.372 49.25 159.722 49.25C148.071 49.25 138.626 66.4765 138.626 87.7266C138.626 132.044 143.726 130.525 153.086 127.737C155.103 127.136 157.317 126.476 159.722 126.203C161.891 123.354 163.932 120.949 165.807 118.74Z" fill="#1450A3"/>
   <path d="M98.64 170.096C98.64 171.728 97.8693 172.544 96.328 172.544C95.0587 172.544 93.744 172.453 92.384 172.272C91.1147 172.181 89.8453 172.091 88.576 172C86.7627 171.909 84.904 171.909 83 172C81.1867 172 79.3733 172 77.56 172C75.384 172 73.208 172.091 71.032 172.272C68.9467 172.544 66.8613 172.68 64.776 172.68C64.232 172.68 63.688 172.453 63.144 172C62.6907 171.456 62.464 170.957 62.464 170.504C62.464 168.963 63.2347 168.192 64.776 168.192C65.6827 168.192 66.544 168.237 67.36 168.328C68.176 168.419 69.0373 168.464 69.944 168.464C71.304 168.464 71.984 167.739 71.984 166.288C71.984 159.307 71.984 152.371 71.984 145.48C72.0747 138.499 72.12 131.563 72.12 124.672C72.12 122.224 72.0293 119.549 71.848 116.648C71.6667 113.656 71.1227 111.027 70.216 108.76C69.4 106.675 68.3573 105.269 67.088 104.544C65.8187 103.819 64.096 103.456 61.92 103.456C59.9253 103.456 57.84 104.181 55.664 105.632C53.5787 107.083 51.72 108.851 50.088 110.936C48.456 112.931 47.232 114.789 46.416 116.512V166.832C46.416 167.829 47.0507 168.328 48.32 168.328C49.2267 168.328 50.088 168.283 50.904 168.192C51.72 168.011 52.5813 167.92 53.488 167.92C53.9413 167.92 54.3947 168.192 54.848 168.736C55.392 169.189 55.664 169.643 55.664 170.096C55.664 171.728 54.8933 172.544 53.352 172.544C52.0827 172.544 50.768 172.453 49.408 172.272C48.1387 172.181 46.8693 172.136 45.6 172.136C44.6933 172.136 43.7867 172.136 42.88 172.136C41.9733 172.136 41.0213 172.136 40.024 172.136H32.816C31.0933 172.136 29.3707 172.227 27.648 172.408C25.9253 172.589 24.2027 172.68 22.48 172.68C21.0293 172.68 20.304 171.864 20.304 170.232C20.304 168.781 21.0747 168.056 22.616 168.056C23.5227 168.056 24.384 168.101 25.2 168.192C26.016 168.283 26.8773 168.328 27.784 168.328C28.872 168.328 29.416 167.829 29.416 166.832V80.2C29.416 79.2933 29.28 78.2053 29.008 76.936C28.8267 75.576 28.1013 74.896 26.832 74.896C25.6533 74.896 24.4293 74.9867 23.16 75.168C21.9813 75.3493 20.8027 75.44 19.624 75.44C19.1707 75.44 18.7627 75.2133 18.4 74.76C18.0373 74.3067 17.856 73.8533 17.856 73.4C17.856 72.4933 18.4453 71.9493 19.624 71.768C23.3413 70.952 27.0587 70.3173 30.776 69.864C34.584 69.32 38.3013 68.504 41.928 67.416C42.6533 67.144 43.3787 67.008 44.104 67.008C45.3733 67.008 46.008 67.5973 46.008 68.776V108.216C48.6373 105.768 51.72 103.592 55.256 101.688C58.792 99.784 62.3733 98.832 66 98.832C72.1653 98.832 76.9253 99.6027 80.28 101.144C83.7253 102.685 86.128 105.224 87.488 108.76C88.9387 112.296 89.664 117.101 89.664 123.176V166.288C89.664 167.648 90.2987 168.328 91.568 168.328C92.384 168.328 93.2 168.283 94.016 168.192C94.832 168.011 95.648 167.92 96.464 167.92C97.0987 167.92 97.5973 168.147 97.96 168.6C98.4133 169.053 98.64 169.552 98.64 170.096Z" fill="white"/>
   <path d="M144.845 170.232C144.845 171.683 144.12 172.408 142.669 172.408C139.858 172.408 137.093 172.272 134.373 172C131.653 171.819 128.888 171.728 126.077 171.728C123.176 171.728 120.229 171.819 117.237 172C114.336 172.272 111.434 172.408 108.533 172.408C107.898 172.408 107.445 172.181 107.173 171.728C106.901 171.184 106.765 170.64 106.765 170.096C106.765 169.099 107.218 168.464 108.125 168.192C109.122 167.92 110.21 167.829 111.389 167.92C112.658 168.011 113.61 168.056 114.245 168.056C116.24 168.056 117.237 166.968 117.237 164.792V153.776C117.237 141.808 117.237 129.885 117.237 118.008C117.237 106.04 117.237 94.072 117.237 82.104C117.237 81.1067 117.146 79.8827 116.965 78.432C116.784 76.8907 115.922 76.12 114.381 76.12C113.293 76.12 112.205 76.3013 111.117 76.664C110.12 76.936 109.077 77.072 107.989 77.072C106.629 77.072 105.949 76.3467 105.949 74.896C105.949 73.8987 106.538 73.1733 107.717 72.72C108.896 72.3573 110.12 72.0853 111.389 71.904C112.749 71.7227 114.018 71.496 115.197 71.224C117.917 70.5893 120.592 69.9547 123.221 69.32C125.941 68.5947 128.616 67.9147 131.245 67.28C131.517 67.1893 131.789 67.144 132.061 67.144C132.333 67.0533 132.605 67.008 132.877 67.008C133.421 67.008 133.92 67.144 134.373 67.416C134.917 67.5973 135.189 68.0507 135.189 68.776C135.189 84.7333 135.144 100.736 135.053 116.784C134.962 132.832 134.917 148.835 134.917 164.792C134.917 166.333 135.37 167.331 136.277 167.784C137.184 168.237 138.272 168.419 139.541 168.328C140.81 168.147 141.944 168.056 142.941 168.056C144.21 168.056 144.845 168.781 144.845 170.232ZM213.349 148.744C213.349 150.557 213.122 152.416 212.669 154.32C212.306 156.224 212.034 158.083 211.853 159.896C211.762 161.347 211.626 163.069 211.445 165.064C211.263 167.059 211.037 168.736 210.765 170.096C210.674 171.184 210.085 171.728 208.997 171.728C203.375 171.728 197.709 171.683 191.997 171.592C186.375 171.501 180.754 171.456 175.133 171.456C171.234 171.456 167.29 171.547 163.301 171.728C159.311 171.819 155.322 171.864 151.333 171.864C150.698 171.864 150.154 171.637 149.701 171.184C149.247 170.731 149.021 170.187 149.021 169.552C149.021 169.28 149.383 168.645 150.109 167.648C150.834 166.56 151.695 165.381 152.693 164.112C153.69 162.843 154.597 161.664 155.413 160.576C156.319 159.488 156.909 158.717 157.181 158.264C158.903 155.635 160.671 153.051 162.485 150.512C164.389 147.973 166.202 145.389 167.925 142.76C171.461 137.32 174.951 131.789 178.397 126.168C181.933 120.547 185.242 114.88 188.325 109.168C188.687 108.624 189.005 108.08 189.277 107.536C189.549 106.901 189.685 106.267 189.685 105.632C189.685 104.363 188.959 103.637 187.509 103.456C186.602 103.275 185.605 103.184 184.517 103.184C183.429 103.184 182.386 103.184 181.389 103.184C179.575 103.184 177.671 103.229 175.677 103.32C173.682 103.411 171.778 103.592 169.965 103.864C167.426 104.227 165.477 105.043 164.117 106.312C162.757 107.491 161.533 109.168 160.445 111.344C159.901 112.523 159.402 113.747 158.949 115.016C158.586 116.195 158.178 117.419 157.725 118.688C157.543 119.323 157.271 119.912 156.909 120.456C156.637 121 156.138 121.272 155.413 121.272C154.053 121.272 153.373 120.456 153.373 118.824V118.416C153.463 116.331 153.554 114.291 153.645 112.296C153.826 110.211 153.962 108.171 154.053 106.176C154.143 105.179 154.189 104.181 154.189 103.184C154.279 102.187 154.37 101.235 154.461 100.328C154.551 99.4213 155.05 98.968 155.957 98.968C156.591 98.968 157.226 99.104 157.861 99.376C158.495 99.5573 159.13 99.648 159.765 99.648C163.029 99.648 166.338 99.6933 169.693 99.784C173.138 99.784 176.447 99.784 179.621 99.784C183.338 99.784 187.055 99.784 190.773 99.784C194.49 99.6933 198.207 99.6027 201.925 99.512C203.466 99.4213 205.007 99.3307 206.549 99.24C208.181 99.1493 209.767 99.104 211.309 99.104C212.215 99.104 212.669 99.6933 212.669 100.872C212.669 101.507 212.487 102.051 212.125 102.504C210.765 104.68 209.314 106.856 207.773 109.032C206.231 111.208 204.69 113.384 203.149 115.56C200.429 119.459 197.663 123.403 194.853 127.392C192.042 131.381 189.367 135.416 186.829 139.496C186.194 140.493 185.106 142.171 183.565 144.528C182.023 146.795 180.346 149.288 178.533 152.008C176.81 154.728 175.314 157.221 174.045 159.488C172.775 161.664 172.141 163.16 172.141 163.976C172.141 165.699 172.458 166.741 173.093 167.104C173.727 167.467 174.815 167.648 176.357 167.648H181.253C184.517 167.739 188.053 167.512 191.861 166.968C195.669 166.424 198.842 164.973 201.381 162.616C203.194 160.803 204.781 158.717 206.141 156.36C207.501 154.003 208.543 151.691 209.269 149.424C209.45 148.971 209.631 148.517 209.813 148.064C210.085 147.52 210.493 147.248 211.037 147.248C211.49 147.248 211.989 147.339 212.533 147.52C213.077 147.701 213.349 148.109 213.349 148.744ZM296.644 170.096C296.644 171.547 295.919 172.272 294.468 172.272C291.839 172.272 289.164 172.181 286.444 172C283.815 171.909 281.186 171.864 278.556 171.864C276.018 171.864 273.434 171.909 270.804 172C268.175 172.181 265.546 172.272 262.916 172.272C262.282 172.272 261.828 172.045 261.556 171.592C261.284 171.048 261.148 170.504 261.148 169.96C261.148 168.6 261.874 167.92 263.324 167.92C264.14 167.92 264.956 167.965 265.772 168.056C266.588 168.056 267.404 168.056 268.22 168.056C269.58 168.056 270.26 167.467 270.26 166.288C270.26 158.672 270.26 151.056 270.26 143.44C270.351 135.824 270.396 128.208 270.396 120.592C270.396 118.144 270.17 115.605 269.716 112.976C269.354 110.347 268.447 108.125 266.996 106.312C265.636 104.499 263.37 103.592 260.196 103.592C258.202 103.592 256.116 104.317 253.94 105.768C251.855 107.219 249.951 108.941 248.228 110.936C246.596 112.931 245.418 114.789 244.692 116.512V164.656C244.692 165.472 244.783 166.243 244.964 166.968C245.236 167.693 245.871 168.056 246.868 168.056C247.594 168.056 248.319 168.056 249.044 168.056C249.86 167.965 250.631 167.92 251.356 167.92C251.81 167.92 252.263 168.101 252.716 168.464C253.17 168.827 253.396 169.235 253.396 169.688C253.396 171.411 252.671 172.272 251.22 172.272C248.682 172.272 246.143 172.181 243.604 172C241.156 171.728 238.618 171.592 235.988 171.592C233.268 171.592 230.503 171.728 227.692 172C224.972 172.181 222.207 172.272 219.396 172.272C218.762 172.272 218.308 172.045 218.036 171.592C217.764 171.048 217.628 170.504 217.628 169.96C217.628 168.6 218.354 167.92 219.804 167.92C220.62 167.92 221.436 167.965 222.252 168.056C223.068 168.056 223.93 168.056 224.836 168.056C226.106 168.056 226.831 167.784 227.012 167.24C227.194 166.696 227.284 165.835 227.284 164.656V144.936C227.284 139.405 227.284 133.875 227.284 128.344C227.284 122.813 227.284 117.283 227.284 111.752C227.284 110.755 227.148 109.667 226.876 108.488C226.604 107.219 225.788 106.584 224.428 106.584C223.522 106.584 222.615 106.629 221.708 106.72C220.892 106.811 220.031 106.856 219.124 106.856C218.58 106.856 217.946 106.765 217.22 106.584C216.586 106.312 216.268 105.813 216.268 105.088C216.268 104.544 216.45 104.136 216.812 103.864C217.175 103.592 217.583 103.411 218.036 103.32C218.943 103.048 219.895 102.867 220.892 102.776C221.89 102.685 222.842 102.549 223.748 102.368C226.106 101.915 228.418 101.416 230.684 100.872C233.042 100.237 235.354 99.6027 237.62 98.968C237.983 98.7867 238.346 98.6507 238.708 98.56C239.071 98.3787 239.434 98.288 239.796 98.288C240.522 98.288 241.156 98.968 241.7 100.328C242.335 101.688 242.834 103.139 243.196 104.68C243.65 106.221 243.922 107.309 244.012 107.944C246.642 105.587 249.815 103.501 253.532 101.688C257.25 99.784 260.922 98.832 264.548 98.832C270.623 98.832 275.338 99.6027 278.692 101.144C282.138 102.685 284.586 105.269 286.036 108.896C287.487 112.432 288.212 117.192 288.212 123.176C288.212 130.248 288.167 137.32 288.076 144.392C287.986 151.464 287.94 158.536 287.94 165.608C287.94 166.515 288.212 167.195 288.756 167.648C289.391 168.011 290.162 168.192 291.068 168.192C291.703 168.192 292.292 168.147 292.836 168.056C293.471 167.965 294.106 167.92 294.74 167.92C296.01 167.92 296.644 168.645 296.644 170.096Z" fill="black"/>
</svg>
   